<svg xmlns="http://www.w3.org/2000/svg" style="display: none;">
<symbol id="brain" viewBox="0 0 512.001 512.001">
<g>
<g>
<path d="M463.344,419.582c14.605-10.454,24.147-27.55,24.147-46.84c0-31.747-25.828-57.575-57.575-57.575
c-31.747,0-57.575,25.828-57.575,57.575c0,19.296,9.548,36.397,24.16,46.849c-28.652,12.822-48.671,41.591-48.671,74.958
c0,4.93,3.997,8.927,8.927,8.927c4.93,0,8.927-3.997,8.927-8.927c0-35.418,28.814-64.232,64.232-64.232
c35.418,0,64.232,28.814,64.232,64.232c0,4.93,3.997,8.927,8.927,8.927s8.927-3.997,8.927-8.927
C512,461.184,491.991,432.406,463.344,419.582z M429.916,412.463c-21.903,0-39.721-17.819-39.721-39.721
s17.819-39.721,39.721-39.721c21.903,0,39.721,17.819,39.721,39.721C469.637,394.644,451.819,412.463,429.916,412.463z"/>
</g>
</g>
<g>
<g>
<path d="M312.952,31.882c-15.58-15.363-36.24-23.668-58.116-23.346c-44.673,0.627-80.537,37.503-79.946,82.201
c0.275,20.771,8.391,40.427,22.854,55.35c9.843,10.156,15.263,23.277,15.263,36.947v10.353c0,20.883,16.989,37.872,37.872,37.872
h10.242c20.883,0,37.872-16.989,37.872-37.872v-10.354c0-13.69,5.4-26.791,15.206-36.888
c14.779-15.219,22.919-35.285,22.919-56.502C337.118,67.761,328.536,47.249,312.952,31.882z M281.14,193.388
c0,11.038-8.98,20.018-20.018,20.018H250.88c-11.038,0-20.018-8.98-20.018-20.018v-1.426h50.279V193.388z M301.392,133.709
c-10.923,11.248-17.722,25.346-19.661,40.4h-16.804v-51.468l26.419-26.419c3.486-3.486,3.486-9.139,0-12.624
c-3.486-3.486-9.139-3.486-12.624,0L256,106.321l-22.721-22.723c-3.486-3.486-9.139-3.486-12.624,0
c-3.486,3.486-3.486,9.139,0,12.624l26.419,26.419v51.468h-16.806c-1.945-15.039-8.759-29.153-19.703-40.446
c-11.279-11.638-17.607-26.966-17.822-43.161c-0.461-34.863,27.507-63.625,62.345-64.114c0.306-0.004,0.612-0.006,0.918-0.006
c16.738,0,32.479,6.447,44.412,18.214c12.155,11.984,18.847,27.983,18.847,45.05C319.264,106.191,312.917,121.84,301.392,133.709z
"/>
</g>
</g>
<g>
<g>
<path d="M171.148,233.874c-3.485-3.486-9.137-3.486-12.624,0l-53.558,53.558c-3.486,3.485-3.486,9.137,0,12.624
c1.742,1.744,4.028,2.615,6.312,2.615s4.569-0.871,6.312-2.615l53.558-53.558C174.634,243.013,174.634,237.36,171.148,233.874z"/>
</g>
</g>
<g>
<g>
<path d="M407.035,287.432l-53.558-53.558c-3.485-3.486-9.137-3.486-12.624,0c-3.486,3.485-3.486,9.137,0,12.624l53.558,53.558
c1.742,1.744,4.028,2.615,6.312,2.615s4.569-0.871,6.312-2.615C410.521,296.57,410.521,290.918,407.035,287.432z"/>
</g>
</g>
<g>
<g>
<path d="M256,252.528c-4.93,0-8.927,3.997-8.927,8.927v34.074c0,4.93,3.997,8.927,8.927,8.927c4.93,0,8.927-3.997,8.927-8.927
v-34.074C264.927,256.525,260.93,252.528,256,252.528z"/>
</g>
</g>
<g>
<g>
<circle cx="409.545" cy="352.724" r="8.927"/>
</g>
</g>
<g>
<g>
<circle cx="442.276" cy="352.724" r="8.927"/>
</g>
</g>
<g>
<g>
<path d="M289.429,419.582c14.605-10.454,24.147-27.55,24.147-46.84c0-31.747-25.828-57.575-57.575-57.575
c-31.747,0-57.575,25.828-57.575,57.575c0,19.296,9.548,36.397,24.16,46.849c-28.652,12.822-48.671,41.591-48.671,74.958
c0,4.93,3.997,8.927,8.927,8.927s8.927-3.997,8.927-8.927c0-35.418,28.814-64.232,64.232-64.232s64.232,28.814,64.232,64.232
c0,4.93,3.997,8.927,8.927,8.927s8.927-3.997,8.927-8.927C338.085,461.184,318.076,432.406,289.429,419.582z M256,412.463
c-21.903,0-39.721-17.819-39.721-39.721S234.099,333.02,256,333.02c21.903,0,39.721,17.819,39.721,39.721
C295.721,394.644,277.903,412.463,256,412.463z"/>
</g>
</g>
<g>
<g>
<circle cx="239.64" cy="352.724" r="8.927"/>
</g>
</g>
<g>
<g>
<circle cx="272.372" cy="352.724" r="8.927"/>
</g>
</g>
<g>
<g>
<path d="M115.5,419.59c14.612-10.453,24.16-27.553,24.16-46.849c0-31.747-25.828-57.575-57.575-57.575
S24.51,340.994,24.51,372.741c0,19.29,9.542,36.388,24.147,46.84C20.009,432.406,0,461.184,0,494.548
c0,4.93,3.997,8.927,8.927,8.927c4.93,0,8.927-3.997,8.927-8.927c0-35.418,28.814-64.232,64.232-64.232
s64.232,28.814,64.232,64.232c0,4.93,3.997,8.927,8.927,8.927s8.927-3.997,8.927-8.927
C164.17,461.181,144.152,432.413,115.5,419.59z M82.085,412.463c-21.903,0-39.721-17.819-39.721-39.721
s17.819-39.721,39.721-39.721c21.903,0,39.721,17.819,39.721,39.721S103.988,412.463,82.085,412.463z"/>
</g>
</g>
<g>
<g>
<circle cx="102.455" cy="352.724" r="8.927"/>
</g>
</g>
<g>
<g>
<circle cx="69.723" cy="352.724" r="8.927"/>
</g>
</g>

</symbol>

<symbol id="mission" viewBox="0 0 301.055 301.055">
<path d="M189.798,31.551c0-4.143-3.357-7.5-7.5-7.5h-79.453c-4.143,0-7.5,3.357-7.5,7.5v47.687c0,4.143,3.357,7.5,7.5,7.5h71.953
v21.186L102.845,179.9l-18.532-18.54c-1.571-1.571-3.769-2.362-5.97-2.168c-2.213,0.197-4.225,1.365-5.493,3.189L1.342,265.221
c-1.594,2.292-1.782,5.28-0.488,7.755c1.293,2.476,3.855,4.026,6.647,4.026h286.035c0.008,0.001,0.016,0.001,0.02,0
c4.143,0,7.5-3.357,7.5-7.5c0-1.783-0.622-3.421-1.661-4.708L189.798,108.66V31.551z M110.345,71.738V39.051h64.453v32.687H110.345z
M21.85,262.003l58.195-83.694l17.495,17.503c1.407,1.406,3.315,2.197,5.305,2.197c1.989,0,3.897-0.791,5.304-2.197l73.141-73.165
l97.818,139.357H21.85z"/>
</symbol>

<symbol id="box" viewBox="0 0 470 470">
<path d="M206.319,198.21c1.475,1.95,3.717,2.976,5.987,2.976c1.576,0,3.166-0.495,4.519-1.52c3.303-2.499,3.956-7.203,1.456-10.506
l-72.102-95.302c-6.503-8.595-9.94-18.849-9.94-29.655c0-27.131,22.073-49.204,49.204-49.204c26.864,0,48.719,21.855,48.719,48.719
c0,4.142,3.358,7.5,7.5,7.5s7.5-3.358,7.5-7.5c0-9.431-2.076-18.381-5.768-26.441C252.447,23.453,267.91,15,284.557,15
c27.131,0,49.204,22.073,49.204,49.204c0,10.806-3.438,21.06-9.94,29.655l-72.105,95.305c-2.5,3.303-1.847,8.007,1.456,10.506
c1.354,1.024,2.943,1.52,4.519,1.52c2.27,0,4.512-1.026,5.987-2.976l72.105-95.304c8.491-11.222,12.979-24.606,12.979-38.706
C348.761,28.802,319.959,0,284.557,0c-19.423,0-37.605,8.817-49.681,23.571C223.183,9.201,205.37,0,185.442,0
c-35.402,0-64.204,28.802-64.204,64.204c0,14.1,4.488,27.484,12.979,38.705L206.319,198.21z"/>
<path d="M433.285,289.565l-40-69.613c-1.338-2.328-3.818-3.763-6.503-3.763H83.218c-2.685,0-5.165,1.436-6.503,3.763l-40,69.613
c-1.333,2.321-1.329,5.177,0.012,7.494c1.341,2.316,3.814,3.743,6.491,3.743H195c2.685,0,5.165-1.436,6.503-3.763l25.997-45.244
V455H90.718V323.302c0-4.142-3.358-7.5-7.5-7.5s-7.5,3.358-7.5,7.5V462.5c0,4.142,3.358,7.5,7.5,7.5h303.564
c4.142,0,7.5-3.358,7.5-7.5V300.802h32.5c2.677,0,5.15-1.427,6.491-3.743C434.614,294.742,434.619,291.886,433.285,289.565z
M190.66,285.802H56.177l31.381-54.613h134.482L190.66,285.802z M379.282,455H242.5V251.795l25.997,45.244
c1.338,2.328,3.818,3.763,6.503,3.763h104.282V455z M279.34,285.802l-31.381-54.613h134.482l31.381,54.613H279.34z"/>
</symbol>

<symbol id="ballon" viewBox="0 0 636.836 636.836">
<path d="M397.396,494.5c-0.429,0.409-0.856,0.856-1.284,1.118c0.137,0,0.137,0,0.272,0    C396.695,495.19,397.104,494.909,397.396,494.5L397.396,494.5L397.396,494.5z" />
<path d="M191.479,177.511c0,0,0,0,0,0.01S191.479,177.521,191.479,177.511L191.479,177.511L191.479,177.511z M191.382,174.871    h-0.122c0.122,0.915,0.122,1.833,0.219,2.64C191.382,176.704,191.382,175.785,191.382,174.871L191.382,174.871L191.382,174.871z" />
<path d="M369.291,153.015L369.291,153.015L369.291,153.015L369.291,153.015L369.291,153.015z M369.194,150.754h-0.098    c0.098,0.793,0.098,1.57,0.194,2.261C369.194,152.314,369.194,151.547,369.194,150.754L369.194,150.754L369.194,150.754z" />
<g>
<path d="M427.443,361.129c-0.359,0.321-0.689,0.681-1.05,0.914c0.155,0,0.155,0,0.253,0     C426.86,361.712,427.182,361.45,427.443,361.129L427.443,361.129L427.443,361.129z" />
<path d="M195.252,381.492c-18.102-4.774-34.396-14.198-47.377-26.918c-0.141,0-0.141,0-0.141,0s-0.525-0.524-1.711-1.75     c-1.045-1.031-2.509-2.606-4.342-4.843c-1.853-2.256-4.094-4.901-6.593-8.188c-0.788-1.03-1.722-2.236-2.65-3.442     c-17.902-23.951-46.512-70.853-54.958-135.18c0-0.253-0.116-0.521-0.116-0.9c-0.647-4.876-1.177-9.749-1.454-14.883     c-0.141-0.661-0.141-1.604-0.141-2.383c-0.127-1.701-0.127-3.442-0.127-5.139c0-81.424,66.02-147.443,147.443-147.443     c81.554,0,147.559,66.02,147.559,147.443c0,1.696,0,3.438-0.106,5.139c0,0,0,2.242-0.389,6.443     c-0.137,1.716-0.39,3.564-0.574,5.927c-0.359,1.979-0.524,4.21-1.06,6.86v0.666c-4.046,26.606-15.646,76.157-49.901,125.407     c0,0.146,0,0.233-0.142,0.39c-6.603,9.374-14.109,18.875-22.273,28.094c-0.398,0.389-0.637,0.642-1.036,0.934     c-11.762,10.443-25.77,18.379-41.227,22.969C226.701,393.122,195.252,381.492,195.252,381.492L195.252,381.492z M399.885,620.199     c0,0,0.895-5.29-5.718-25.575c-10.581-37.498-56.014-63.073-82.469-63.073c-67.882-1.265-71.646-45.56-71.864-50.46h18.341     c0,0,17.888-0.273,10.687-15.979c0-0.038-0.02-0.038-0.029-0.058l-23.154-50.489c23.533-4.162,44.883-14.85,62.066-30.176     c0.472-0.281,0.769-0.612,1.216-1.06c9.622-10.833,18.438-21.987,26.148-32.976c0.166-0.166,0.166-0.292,0.166-0.477     c40.221-57.852,53.873-116.048,58.648-147.297v-0.802c0.632-3.097,0.807-5.708,1.244-8.047c0.186-2.762,0.467-4.94,0.613-6.943     c0.467-4.969,0.467-7.585,0.467-7.585c0.155-2.013,0.155-4.026,0.155-6.034C396.403,77.523,318.89,0,223.113,0     C127.478,0,49.958,77.523,49.958,173.159c0,2.008,0,4.021,0.136,6.034c0,0.914,0,2.022,0.17,2.786     c0.302,6.034,0.948,11.742,1.717,17.479c0,0.457,0.136,0.773,0.136,1.075c9.899,75.521,43.498,130.625,64.527,158.757     c1.099,1.43,2.183,2.82,3.106,4.064c2.917,3.86,5.567,6.934,7.717,9.589c2.173,2.635,3.885,4.463,5.129,5.708     c1.386,1.42,1.984,2.042,1.984,2.042s0,0,0.17,0c17.636,17.3,40.537,29.368,65.928,33.861l-19.746,45.394     c-8.611,19.818,10.328,21.142,10.328,21.142h20.456c12.068,75.967,67.425,76.93,92.494,77.62     c63.516,7.294,68.349,59.728,68.349,67.663c1.771,5.737,4.853,11.902,17.213,10.162     C402.082,634.747,399.885,620.199,399.885,620.199L399.885,620.199z" />
<path d="M454.167,72.044c-17.476,0-34.046,3.646-49.304,9.831c-7.176,3.842-4.823,12.992-4.823,12.992l1.226,2.811v-0.01     c0,0,0.039,0.088,0.039,0.116l0.146,0.312c0.778,1.624,4.493,7.366,17.728,2.908c0.545-0.19,0.934-0.181,1.459-0.302     c10.609-3.355,21.832-5.334,33.579-5.334c62.44,0,112.988,50.543,112.988,112.892c0,1.312,0,2.616-0.077,3.943     c0,0,0,1.702-0.312,4.94c-0.097,1.303-0.292,2.728-0.408,4.551c-0.302,1.512-0.39,3.224-0.817,5.236v0.525     c-3.121,20.368-11.99,58.308-38.217,96.039c0,0.117,0,0.194-0.098,0.292c-5.066,7.177-10.794,14.45-17.047,21.501     c-0.32,0.311-0.535,0.496-0.836,0.719c-8.977,7.994-19.712,14.092-31.527,17.592c-20.897,9.501-44.995,0.613-44.995,0.613     c-13.887-3.686-26.354-10.882-36.292-20.626c-0.116,0-0.116,0-0.116,0s-0.39-0.428-1.294-1.322     c-0.826-0.837-1.935-2.022-3.335-3.734c-1.128-1.42-2.606-3.199-4.085-5.076c-0.028-0.059-0.077-0.059-0.106-0.117     c-8.801-10.162-16.211-0.077-16.269,0l-1.245,2.198c-0.02,0.049-2.47,4.745,1.04,9.607c0.467,0.661,1.002,1.439,1.449,2.042     c0.816,1.07,1.653,2.159,2.373,3.083c2.236,2.985,4.259,5.339,5.912,7.361s2.956,3.423,3.938,4.356     c1.04,1.089,1.507,1.575,1.507,1.575s0,0,0.146,0c13.488,13.265,31.031,22.503,50.461,25.945l-15.112,34.736     c-5.29,12.185,2.868,15.18,6.379,15.938h54.982c3.637-0.65,10.036-3.102,5.951-11.961c0-0.02,0-0.02,0-0.058l-17.708-38.655     c18-3.219,34.337-11.406,47.504-23.105c0.36-0.253,0.604-0.486,0.934-0.816c7.371-8.305,14.12-16.844,20.062-25.265     c0.107-0.146,0.107-0.233,0.107-0.351c30.808-44.329,41.251-88.872,44.927-112.799v-0.607c0.467-2.368,0.604-4.381,0.934-6.175     c0.137-2.12,0.351-3.773,0.467-5.314c0.351-3.797,0.351-5.815,0.351-5.815c0.146-1.527,0.146-3.088,0.146-4.605     C586.896,131.402,527.528,72.044,454.167,72.044L454.167,72.044z" />
</g>
</symbol>

<symbol id="arrow-up" viewBox="0 0 469.75 469.75">
<path d="M11.136,104.22c1.132,0.374,2.366,0.635,3.771,0.635c144.39,0.15,288.761,5.509,433.133,1.445
c1.884-0.054,3.529-0.475,4.936-1.166c3.271-0.972,6.195-3.286,7.647-7.317c0.057-0.15,0.092-0.31,0.147-0.462
c0.843-1.594,1.412-3.389,1.671-5.293c3.666-11.819,5.81-23.991,7.257-36.295c0.208-1.772-0.209-3.44-0.98-4.961
c-1.285-4.283-4.804-7.86-10.567-8.033c-147.703-4.466-295.604-8.439-443.244,0c-0.465,0.023-0.869,0.132-1.3,0.198
c-4.436,0.073-8.617,2.554-9.838,8.279C0.81,65.122-0.871,79.129,0.464,93.299C1.079,99.835,5.992,103.476,11.136,104.22z
M24.582,65.412c139.185-7.45,278.598-4.164,417.841-0.005c-0.67,5.987-1.366,11.966-2.066,17.946
c-139.056,3.603-278.108-1.231-417.168-1.56C23.277,76.306,23.734,70.857,24.582,65.412z"/>
<path d="M364.258,266.763c3.361-3.321,4.682-8.312,1.138-13.462c-0.519-0.751-1.092-1.437-1.62-2.179
c-0.016-0.015-0.021-0.04-0.035-0.056c-34.627-49.394-80.974-86.447-129.537-121.488c-1.701-1.229-3.385-1.869-5.007-2.102
c-3.166-2.209-7.312-2.6-11.524,0.604c-48.418,36.846-87.407,82.598-111.779,138.657c-2.731,6.276-0.068,12.167,4.233,15.498
c2.615,2.58,6.292,4.169,10.748,3.539l48.624-6.951c-1.082,32.382-2.168,62.667-3.271,108.217
c-0.365,0.975-0.645,2.021-0.718,3.214c-0.556,8.917-1.145,17.829-1.707,26.746c-2.267,7.2,1.171,15.884,10.628,14.843
c38.263-4.205,76.482-5.738,114.958-4.479c1.401,0.045,2.631-0.168,3.778-0.488c6.327,0.493,12.908-3.285,12.649-11.455
c-1.382-42.569-2.793-99.392-4.215-141.955c17.813-1.143,35.622-2.103,53.481-2.188
C359.323,271.252,362.354,269.394,364.258,266.763z M289.393,250.367c-6.804,0.457-10.587,5.448-11.339,10.755
c-0.406,1.249-0.655,2.61-0.604,4.174c1.377,41.269,2.742,96.797,4.083,138.061c-25.466-0.579-50.833,0.152-76.188,1.976
c0.488-1.128,0.825-2.377,0.899-3.814c3.286-65.825,1.815-79.719,1.732-145.596c-0.005-6.602-5.05-9.938-10.167-10.044
c-1.102-0.31-2.308-0.478-3.702-0.355c-12.652,1.066-25.334,1.554-38.006,2.219c19.771-34.144,44.798-64.152,74.826-90.197
c0.198-0.173,0.328-0.365,0.51-0.541c36.704,26.883,72.026,55.447,100.402,90.962
C317.688,248.539,303.541,249.421,289.393,250.367z"/>
</symbol>

<symbol id="fb" viewBox="0 0 53.304 53.304">
<path d="M4.486,49.771c0.126,0.201,0.254,0.354,0.381,0.494c0.249,0.268,0.494,0.479,0.738,0.672
c0.972,0.748,1.973,1.24,2.938,1.522c0.327-0.047-0.466-0.461,0.057-0.442c2.087,1.555,5.834,1.518,6.02,0.846
c-1.413-0.152-2.84-0.498-4.254-0.969C9.229,51.504,8.089,51.051,7,50.475c0.083,0.036,0.165,0.076,0.249,0.111
c0.852,0.352,1.731,0.617,2.622,0.838c1.782,0.438,3.612,0.691,5.459,0.846c3.698,0.303,7.468,0.191,11.212-0.027
c3.747-0.225,7.469-0.559,11.124-0.82l5.444-0.365c0.905-0.061,1.808-0.121,2.729-0.221c0.463-0.053,0.928-0.111,1.422-0.221
c0.248-0.055,0.504-0.121,0.787-0.232c0.279-0.126,0.604-0.234,0.992-0.709c0.104-0.346,0.069-0.67-0.025-0.822
c-0.092-0.156-0.201-0.16-0.307-0.101c-0.195,0.151-0.529,0.437-0.89,0.446c-0.699,0.068-1.674-0.01-2.95-0.008
c-2.529-0.016-6.08,0.096-9.314,0.803c-0.418-0.262,0.277-0.57-1.084-0.797c-5.307-0.116-11.133,1.229-16.777,1.328
c-1.147-0.965-5.274-1.441-7.021-0.971c-0.182,0.477,2.69,0.508,2.579,0.842c-1.055,0.412-2.822,0.069-4.45-0.367l-2.155-0.619
c-0.015-0.006-0.032-0.01-0.046-0.018c-0.423-0.175-0.925-0.449-1.042-0.662c-0.005,0-0.004-0.009-0.004-0.015
c0.023,0.001,0.028-0.026,0.081-0.067c0.105-0.098,0.3-0.207,0.504-0.297c0.415-0.182,0.893-0.318,1.373-0.438
c1.944-0.458,4.011-0.688,6.077-0.895c1.83-0.175,3.681-0.298,5.537-0.396c0.095,0.225,0.208,0.441,0.354,0.633
c0.47,0.621,1.165,1.033,1.935,1.139c0.421,0.053,0.675,0.01,0.961,0.006l0.853-0.035l1.7-0.06
c0.48,0.146,1.268,0.261,2.222,0.343l0.744,0.055c0.202,0.021,0.669,0.031,1.038-0.061c0.777-0.171,1.518-0.68,1.962-1.406
c0.159-0.264,0.265-0.541,0.345-0.84c0.428,0.006,0.855,0.008,1.283,0.019c3.65,0.114,7.305,0.299,10.801,0.891
c0.521,0.091,1.044,0.179,1.557,0.294c0.758,0.172,2.16,0.356,2.838,0.711c0.361,0.159,0.41,0.486,0.461,0.377
c0.035-0.012,0.029-0.267-0.147-0.461c-0.127-0.154-0.346-0.299-0.61-0.437c-0.061-0.034-0.121-0.065-0.192-0.101
c-0.031-0.014-0.05-0.029-0.083-0.043c-0.04-0.017-0.082-0.025-0.123-0.041c-0.086-0.037-0.157-0.072-0.258-0.107
c-0.176-0.062-0.355-0.114-0.535-0.168c-0.057-0.018-0.112-0.036-0.169-0.053c-0.322-0.092-0.646-0.174-0.97-0.248
c-0.142-0.033-0.31-0.063-0.485-0.09c-1.097-0.222-2.207-0.371-3.322-0.515c-1.993-0.231-4.007-0.372-6.032-0.466
c-1.295-0.059-2.597-0.092-3.897-0.115c0.014-0.139,0.009-0.17,0.012-0.384l-0.005-0.427c-0.007-0.399-0.023-0.779-0.038-1.161
V26.208c0-0.711,0.347-1.336,0.874-1.734c0.332-0.044,0.77-0.013,1.172-0.019l1.553,0.01c0.502,0.017,1.133-0.015,1.678-0.208
c0.266-0.102,0.561-0.216,0.822-0.407c0.662-0.213,1.146-0.594,1.215-1.032c0.062-0.389,0.123-0.794,0.185-1.213l0.319-2.583
c0.054-0.496,0.104-1.002,0.152-1.515c0.073-0.798-0.764-1.445-1.883-1.504c-0.309-0.254-0.685-0.453-1.133-0.464l-3.171,0.006
c-0.356,0.004-0.642,0.007-0.899-0.039c-0.498-0.399-0.822-1.004-0.822-1.691v-3.144c0-0.371,0.242-0.771,0.718-1.192
c0.103-0.091,0.21-0.168,0.317-0.24l3.262-0.022c0.314-0.01,0.643,0.02,1.035-0.053c0.303-0.057,0.586-0.188,0.845-0.352
c1.052-0.154,1.86-1.051,1.86-2.145V2.469c0-1.142-0.881-2.068-2-2.159c-0.359-0.194-0.76-0.311-1.152-0.31l-3.842,0.021
c-1.268,0.016-2.545-0.022-3.825,0.097c-1.084,0.099-2.167,0.291-3.204,0.65c-0.024,0.008-0.05,0.018-0.076,0.027
c-0.156,0.056-0.314,0.104-0.468,0.168c-0.058,0.026-0.112,0.059-0.169,0.085c-0.064,0.027-0.121,0.05-0.188,0.08
c-0.1,0.051-0.195,0.109-0.293,0.162c-0.123,0.065-0.245,0.132-0.364,0.202c-0.121,0.071-0.238,0.148-0.356,0.223
c-0.063,0.041-0.129,0.078-0.192,0.12c-0.001,0.001-0.003,0.001-0.003,0.002c-0.065,0.043-0.129,0.086-0.192,0.131
c-0.22,0.153-0.433,0.316-0.641,0.487c-0.015,0.012-0.03,0.022-0.045,0.035c-0.059,0.049-0.117,0.1-0.175,0.151
c-0.019,0.016-0.04,0.029-0.059,0.045c-0.103,0.089-0.214,0.197-0.327,0.31c-0.048,0.046-0.1,0.088-0.147,0.135
c-0.454,0.465-1.03,1.225-1.313,2.094c-0.302,0.855-0.456,1.736-0.526,2.366c-0.068,0.631-0.042,1.008,0.004,0.88
c0.054-0.124,0.113-0.726,0.448-1.98c0.019-0.067,0.038-0.133,0.06-0.205c0.074-0.249,0.156-0.496,0.246-0.739
c0.012-0.035,0.026-0.07,0.039-0.104c0.028-0.072,0.061-0.14,0.091-0.211c0.086-0.205,0.183-0.404,0.291-0.593
c0.061-0.106,0.126-0.209,0.194-0.312c0.113-0.167,0.233-0.326,0.359-0.479c0.078-0.095,0.153-0.193,0.236-0.281
c0.197-0.215,0.401-0.425,0.625-0.623c1.045-0.895,2.248-1.648,3.594-2.007c0.818-0.231,1.654-0.36,2.5-0.44
c-1.356,0.205-2.483,0.559-3.371,1.068c-1.482,0.853-2.547,1.814-3.205,2.888c-0.664,1.075-1.033,2.1-1.123,3.079
c-0.082,0.978-0.122,1.616-0.122,1.913v4.366c0,1.202-0.975,2.177-2.177,2.177h-0.065c0.347-0.155,0.669-0.369,0.955-0.638
c0.292-0.282,0.543-0.642,0.661-1.077c0.114-0.482,0.087-0.787,0.127-1.147c0.104-1.404,0.225-2.796,0.366-4.174
c-0.251-0.76-0.532-0.534-0.802,0.399c-0.135,0.466-0.269,1.109-0.395,1.894l-0.183,1.279l-0.086,0.71l-0.042,0.372
c-0.011,0.134-0.03,0.259-0.047,0.312c-0.082,0.288-0.316,0.579-0.661,0.804c-0.339,0.22-0.795,0.363-1.158,0.35L17,15.072
c-0.107,0-0.214,0.003-0.317,0.017c-0.21,0.02-0.414,0.06-0.612,0.117c-0.399,0.112-0.777,0.285-1.131,0.523
c-0.353,0.238-0.685,0.543-0.954,0.943c-0.136,0.197-0.25,0.425-0.335,0.672c-0.045,0.107-0.082,0.294-0.109,0.445
c-0.026,0.16-0.02,0.186-0.032,0.285l-0.024,2.077l0.003,1.014c0.021,0.367-0.039,0.576,0.073,1.23
c0.265,1.112,1.045,1.782,1.825,2.176c0.413,0.199,0.806,0.326,1.315,0.38c0.149,0.017,0.23,0.015,0.309,0.014l0.229-0.002
c0.102-0.003,0.212,0.009,0.324,0.026c0.185,0.155,0.069,0.212,0.079,0.309c-0.025,0.107,0.197,0.22,0.488,0.647
c0.065,0.088,0.096,0.165,0.104,0.206v-0.002c0.001,0.004,0,0.006-0.005-0.02c-0.002-0.014-0.002-0.025,0.001-0.039l0.004,0.059
c0-0.002,0.004,0.012,0.001,0.006l-0.001-0.004l0.002,0.031l0.003,0.047l0.001-0.011v-0.006c0.001,0.044-0.004-0.108,0.004,0.099
l-0.002-0.027l-0.003-0.055v0.002v0.051l-0.003,0.205l-0.012,1.649c-0.001,1.104,0.013,2.22,0.037,3.343
c0.048,2.244,0.141,4.521,0.249,6.809l0.352,6.881l0.024,0.445c0.008,0.142,0.037,0.281,0.064,0.42
c-2.669,0.123-5.32,0.299-7.927,0.584c-0.985,0.113-1.963,0.242-2.933,0.423c-0.135,0.028-0.27,0.058-0.404,0.084
c-0.11-0.136,0.48-0.353,0.315-0.481c-0.693-0.1-1.362,0.039-1.807,0.266c-0.45,0.228-0.652,0.525-0.477,0.629
c-0.232,0.031-0.479,0.068-0.767,0.203c-0.143,0.066-0.303,0.164-0.459,0.348c-0.077,0.091-0.153,0.21-0.206,0.355
c-0.03,0.068-0.045,0.151-0.062,0.231l-0.005,0.03l-0.001,0.004l0.003,0.08L4.22,48.792l-0.001,0.005l-0.006,0.021L4.2,48.863
c0,0.086,0.019,0.226,0.044,0.324c0.019,0.074,0.042,0.153,0.069,0.225C4.36,49.551,4.422,49.667,4.486,49.771z M33.173,15.918
h1.356l1.354,0.001c0.224,0.005,0.453-0.02,0.691,0.048c0.02,0.005,0.036,0.017,0.055,0.023h-3.072
c-0.184,0-0.358-0.029-0.528-0.072C33.077,15.918,33.126,15.917,33.173,15.918z M16.799,23.892
c-0.69-0.101-1.358-0.484-1.777-1.039c-0.21-0.277-0.336-0.611-0.348-0.948l0.006-1.089l0.034-2.178
c-0.171-1.192,0.787-2.062,1.846-2.298c-0.601,0.387-1,1.059-1,1.827v3.687c0,0.958,0.622,1.762,1.482,2.053
C16.961,23.903,16.878,23.892,16.799,23.892z M20.658,46.544c0.104-0.005,0.208-0.009,0.312-0.013
c0.089,0.174,0.192,0.338,0.321,0.48C21.042,46.915,20.833,46.747,20.658,46.544z M20.263,45.578l-0.024-1.112l-0.05-2.237
l-0.105-4.479l-0.189-8.941l-0.032-2.226c0.003-0.349,0.003-0.786-0.191-1.141c-0.174-0.355-0.437-0.655-0.743-0.888
c-0.311-0.251-0.685-0.419-1.071-0.524h0.693c1.202,0,2.177,0.975,2.177,2.177v19.354c0,0.135,0.014,0.269,0.038,0.397
c-0.145,0.005-0.291,0.009-0.436,0.015C20.293,45.845,20.271,45.712,20.263,45.578z M5.533,48.73
c-0.033,0.045-0.035-0.021-0.047-0.045c0.07,0.055,0.028,0.018,0.055,0.03C5.54,48.719,5.541,48.713,5.533,48.73z"/>
</symbol>

<symbol id="infinity" viewBox="0 0 17.502 17.502">
<path d="M13.182,4.431c-1.153,0-2.237,0.449-3.036,1.246L8.75,7.017l-1.375-1.32
C6.56,4.88,5.474,4.431,4.32,4.431S2.081,4.882,1.267,5.697C0.45,6.513,0,7.597,0,8.752c0,1.152,0.449,2.238,1.266,3.053
c0.814,0.816,1.899,1.266,3.054,1.266c1.153,0,2.239-0.449,3.036-1.248l1.395-1.338l1.376,1.32
c0.815,0.816,1.901,1.266,3.055,1.266s2.238-0.449,3.053-1.266c0.817-0.814,1.267-1.9,1.267-3.055s-0.449-2.238-1.266-3.055
C15.419,4.88,14.335,4.431,13.182,4.431z M5.606,10.036c-0.687,0.688-1.884,0.688-2.572,0C2.69,9.692,2.501,9.235,2.501,8.751
c0-0.486,0.189-0.941,0.535-1.287C3.378,7.12,3.835,6.931,4.32,6.931S5.262,7.12,5.625,7.482l1.321,1.27L5.606,10.036z
M14.467,10.036c-0.687,0.689-1.866,0.705-2.59-0.018l-1.321-1.27l1.339-1.285c0.688-0.688,1.886-0.688,2.573-0.002
c0.344,0.346,0.533,0.801,0.533,1.287S14.811,9.692,14.467,10.036z"/>
</symbol>
<symbol id="arrow" viewBox="0 0 477.175 477.175">
    <path d="M360.731,229.075l-225.1-225.1c-5.3-5.3-13.8-5.3-19.1,0s-5.3,13.8,0,19.1l215.5,215.5l-215.5,215.5
        c-5.3,5.3-5.3,13.8,0,19.1c2.6,2.6,6.1,4,9.5,4c3.4,0,6.9-1.3,9.5-4l225.1-225.1C365.931,242.875,365.931,234.275,360.731,229.075z
        "/>
</symbol>
<symbol id="camera" viewBox="0 0 60 60">
    <path d="M55.201,15.5h-8.524l-4-10H17.323l-4,10H12v-5H6v5H4.799C2.152,15.5,0,17.652,0,20.299v29.368
        C0,52.332,2.168,54.5,4.833,54.5h50.334c2.665,0,4.833-2.168,4.833-4.833V20.299C60,17.652,57.848,15.5,55.201,15.5z M8,12.5h2v3H8
        V12.5z M58,49.667c0,1.563-1.271,2.833-2.833,2.833H4.833C3.271,52.5,2,51.229,2,49.667V20.299C2,18.756,3.256,17.5,4.799,17.5H6h6
        h2.677l4-10h22.646l4,10h9.878c1.543,0,2.799,1.256,2.799,2.799V49.667z"/>
    <path d="M30,14.5c-9.925,0-18,8.075-18,18s8.075,18,18,18s18-8.075,18-18S39.925,14.5,30,14.5z M30,48.5c-8.822,0-16-7.178-16-16
        s7.178-16,16-16s16,7.178,16,16S38.822,48.5,30,48.5z"/>
    <path d="M30,20.5c-6.617,0-12,5.383-12,12s5.383,12,12,12s12-5.383,12-12S36.617,20.5,30,20.5z M30,42.5c-5.514,0-10-4.486-10-10
        s4.486-10,10-10s10,4.486,10,10S35.514,42.5,30,42.5z"/>
    <path d="M52,19.5c-2.206,0-4,1.794-4,4s1.794,4,4,4s4-1.794,4-4S54.206,19.5,52,19.5z M52,25.5c-1.103,0-2-0.897-2-2s0.897-2,2-2
        s2,0.897,2,2S53.103,25.5,52,25.5z"/>
</symbol>
</svg>
