<svg xmlns="http://www.w3.org/2000/svg" xmlns:xlink="http://www.w3.org/1999/xlink" width="1366px" height="300px" viewBox="-0.000418475 -0.162356 1366 300.125" preserveAspectRatio="xMidYMid meet"  ><defs id="svgEditorDefs"><path id="svgEditorClosePathDefs" stroke="black" fill="khaki" style="stroke-width: 1px;"/></defs><rect id="svgEditorBackground" x="0" y="0" width="1366" height="768" style="fill: none; stroke: none;"/><g id="g_e1_svg" transform="matrix(0.579754 0 0 0.579754 309.619 39.8576)"/><g id="g_e471_svg" transform="matrix(0.579754 0 0 0.579754 309.619 39.8576)"/><path d="M138.97212585723224,419.48630880747584c-9.291197290276926,-4.995319906785937,-32.185199569771925,-6.907149251998078,-31.62037329882473,9.773577141039311c0.9481034875574892,11.123206752184444,11.888949002348483,12.191359377519234,22.421717771108334,15.906014559111213c11.49096181028628,3.5230165732864407,14.81635921371685,19.61455776331354,3.257854234757559,26.829393209164152c-9.25884167929604,5.298449362797328,-23.010667865922528,3.3539839474112227,-31.428734313759364,-2.2996470647231035" stroke="black" id="e1691_curve3" style="fill: none; stroke-width: 7px;" transform="matrix(2.36211 0 0 2.27793 -221.521 -854.151)"/><g id="e5046_group" transform="matrix(1.54122 0 0 1.54122 -94.0662 -397.482)"><line id="e2017_line" x1="154.26" y1="441.841" x2="154.259" y2="495.218" stroke="black" style="stroke-width: 4px; fill: none;" transform="matrix(1.53263 0 0 1.47801 -82.6974 -296.305)"/><path d="M155.82061441877832,452.1024690630942c0.8170742400335484,-1.7090402163810268,2.764993581049339,-4.001561776795199,4.671202671380684,-6.060563075689629c2.12180252467482,-2.106910950970587,3.980772729443487,-2.9630046306726285,5.677292812017754,-3.521376621575996c1.696520082574267,-0.5583719909033675,5.233985793482333,-1.0476571891232993,9.222609771488749,-0.28744400658058566c2.934611632327403,0.47275527008469,6.0316911579870975,1.902696073259449,7.929041441843566,3.832768501256112c1.705711675551214,1.642614515538753,4.014358515191958,5.095940152973128,4.982608456938095,6.851088946649611c1.6389850708146128,2.6175225310502697,2.10716336409493,6.550646772771927,1.8205681318117968,8.959109390892422c-0.3105500583212688,2.767785008692897,-1.7790773011570025,5.935812051157882,-3.2339055738866307,8.120669038475057c-1.2392348383861815,2.2088118133552825,-4.646193715762223,5.132495708932481,-7.139786736563792,6.343872353533811c-2.085943758227529,0.8743402003660776,-4.883446592012632,1.6786023297707402,-7.9517521433102445,1.8920028370353634c-1.67600510160716,0.04488228514696857,-2.7851722691885925,-0.40738602232426047,-4.479135249210458,-0.7711556347192072c-2.597988070592322,-1.2798940807994654,-3.9225861571942744,-0.7704777109980796,-5.544171702952099,-2.94268012913534c-2.7364413611978478,-2.2449013361021457,-5.244917549041162,-4.746244769587065,-6.242017239049687,-4.881357570171872c-2.1208904141755056,-2.8549419605813,-1.6957316994348446,-4.397271670306168,0.12806990866070578,-7.882085346334918c0.5615451912941012,2.841167134420857,0.790062229007134,3.7928779679053832,2.2673993715436893,6.013613162473746c1.3575630123457358,1.7655934998435328,2.1289671212173573,3.4004299202750303,5.773119069109043,5.701240685117341c4.41070638111276,2.0852173304988924,7.246659850043841,1.5621005138749524,9.965209378671744,1.1258961413176394c1.92804026936858,-0.26852059029016573,4.136787777807314,-1.5195119806289767,6.30261523788883,-2.7275178205944712c1.783801903246939,-1.5962896956798431,3.125607447709257,-3.45706061408265,4.747644786353931,-6.687989754180023c0.9723364961371885,-3.1338581761685305,1.0701317791645977,-5.787675308818734,0.7690708880044212,-7.739084266205111c-0.25148235938272023,-2.4628047026939157,-1.4604883844068581,-3.822651871009498,-3.0220754247214927,-7.003156889738136c-1.8246729068090417,-1.753402024941579,-3.3782528251278734,-3.0244777986234794,-5.754162576324205,-3.994196690466822c-1.8278692917958494,-0.828910475091277,-3.6953592796274677,-1.1030087756316789,-6.637985696626657,-1.4141670525444852c-2.2512742212951196,0.3872866575218836,-3.6544626718512347,0.574405639949191,-8.14547143959524,2.561085698103568c-3.433658662662566,3.270471315637053,-4.5523197425739,6.7437135865474716,-6.743392762983291,9.812699165983929c-0.7725209192815043,-2.0239110051261378,0.08383346589698704,-3.712004976711796,0.6374046195107894,-5.3012710629020035Z" stroke="black" id="e2553_area3" style="stroke-width: 1px;" fill="black" transform="matrix(1.5194 0 0 1.46525 -80.6691 -290.687)"/><circle id="e2792_circle" cx="170.344" cy="459.193" stroke="black" style="stroke-width: 1px; fill: none;" r="17.0827" transform="matrix(1.63438 0 0 1.57613 -97.9008 -340.585)"/><circle id="e2821_circle" cx="158.175" cy="451.719" stroke="black" style="stroke-width: 1px; fill: none;" r="18.8362" transform="matrix(1.17364 -0.00278273 0.00288556 1.13182 -8.05354 -127.657)"/></g><g id="e5010_group" transform="matrix(1.54122 0 0 1.54122 -94.0662 -397.482)"><line id="e3430_line" x1="219.17" y1="442.092" x2="219.276" y2="477.76" stroke="black" style="stroke-width: 4px; fill: none;" transform="matrix(1.53263 0 0 1.47801 -82.6974 -296.305)"/><line id="e3445_line" x1="245.789" y1="450.358" x2="245.673" y2="477.372" stroke="black" style="stroke-width: 4px; fill: none;" transform="matrix(1.53263 0 0 1.47801 -82.6974 -296.305)"/><polygon stroke="black" stroke-width="0.04790965207631874" id="e3474_area3" style="fill: none;" points="220.717 451.91" transform="matrix(1.53263 0 0 1.47801 -82.6974 -296.305)"/><path d="M220.9251802660667,452.49552634910305c1.1999820009160374,-1.9701227204743645,2.3216642600045816,-4.062891941253554,4.054516796672289,-5.992049965058698c1.0852531714332656,-1.2728912378794917,2.5134038306256343,-2.287795171387245,4.83273212346441,-3.5419535699111293c2.175599336609963,-1.0385649641808072,4.228135870797871,-1.5524182134950024,5.892876347842616,-1.6529073832949166c2.0240628676171184,-0.07653434376169344,3.4685287952467547,0.1901935503041159,4.767011546125303,0.6228273607932806c1.4901213591837177,0.45658863652738546,2.538886463524875,1.096155166745973,3.593233084973008,1.9403385457768536c1.2220304037151664,0.8920930311070947,1.9615672721371595,1.9022389108493485,2.467335881876494,2.826675945928457c0.7932265221971306,1.5472625120712564,0.7473812454537665,2.7230151375057403,0.7665622081820231,4.120218638752874c-0.1485028195388054,1.9242096740867396,-2.9376638929625187,0.5646287566402179,-3.114134149519259,-0.6707321834884965c-0.6555667773199332,-1.1874512880523298,-1.828457360586782,-2.470074076039623,-3.0422624273332985,-3.353649477632189c-1.453353327127985,-0.9314850536688368,-2.7277163338014248,-1.459519283048678,-5.533553135247786,-1.5810458507602903c-1.7039148036910206,-0.049662089596949954,-4.608847401554726,0.2525432445126512,-6.395939476963662,1.3175379349594891c-1.739182423332636,0.8733560821415267,-3.945133200511151,2.5591663406344196,-5.214509298420381,3.73593006870982c-1.18679676306769,1.2129348054074285,-3.0235642489165,3.723745016207374,-3.8404140363542467,5.630402288335006c-0.5533467010180289,-0.8721025482988125,0.18938801077862877,-2.988533325116066,0.76654453470249,-3.401592353110061Z" stroke="black" id="e3482_area3" style="stroke-width: 1px;" fill="black" transform="matrix(1.53263 0 0 1.47801 -82.6974 -296.305)"/><path d="M326.17061905266866,385.62747980154194a40.823805,40.823805,0,0,1,37.0820707070705,-26.637766554433256" stroke="black" id="e4400_circleArc" style="fill: none; stroke-width: 1px;" transform="matrix(0.644054 0 0 0.621101 45.8776 132.398)"/><path d="M325.5957032277527,393.58048204621093a43.965426,43.965426,0,0,1,29.79980359147021,-23.09245230078568" stroke="black" id="e4418_circleArc" style="fill: none; stroke-width: 1px;" transform="matrix(0.644054 0 0 0.621101 45.8776 132.398)"/><path d="M363.1376176998939,358.999632042265a27.07947,27.07947,0,0,1,25.487934904601616,15.66645622895652" stroke="black" id="e4492_circleArc" style="fill: none; stroke-width: 1px;" transform="matrix(0.644054 0 0 0.621101 45.8776 132.398)"/><path d="M355.0561857726571,370.5701873128529a24.08124,24.08124,0,0,1,25.727483164983084,10.588033108866512" stroke="black" id="e4565_circleArc" style="fill: none; stroke-width: 1px;" transform="matrix(0.644054 0 0 0.621101 45.8776 132.398)"/></g><line id="e3647_line" x1="287.288" y1="426.17" x2="287.527" y2="477.678" stroke="black" style="stroke-width: 4px; fill: none;" transform="matrix(2.36211 0 0 2.27793 -221.521 -854.151)"/><line id="e3663_line" x1="278.078" y1="444.291" x2="300.312" y2="444.243" stroke="black" style="stroke-width: 4px; fill: none;" transform="matrix(2.36211 0 0 2.27793 -221.521 -854.151)"/><g id="e4974_group" transform="matrix(1.54122 0 0 1.54122 -94.0662 -397.482)"><polygon stroke="black" stroke-width="0.04790965207631874" id="e3692_area3" style="fill: none;" points="311.745 452.293" transform="matrix(1.53263 0 0 1.47801 -82.6974 -296.305)"/><line id="e4826_line" x1="310.448" y1="407.166" x2="310.304" y2="478.149" stroke="black" style="stroke-width: 4px; fill: none;" transform="matrix(1.53263 0 0 1.47801 -82.6974 -296.305)"/><line id="e4827_line" x1="336.8171997070312" y1="450.7469177246094" x2="336.70120239257807" y2="477.7608947753906" stroke="black" style="stroke-width: 4px; fill: none;" transform="matrix(1.53263 0 0 1.47801 -82.6974 -296.305)"/><polygon stroke="black" stroke-width="0.04790965207631874" id="e4827_area3" style="fill: none;" points="311.745 452.299" transform="matrix(1.53263 0 0 1.47801 -82.6974 -296.305)"/><path d="M311.9536149660434,452.8845059921355c1.1999820009160374,-1.9701227204743645,2.3216642600045816,-4.062891941253554,4.054516796672289,-5.992049965058698c1.0852531714332656,-1.2728912378794917,2.5134038306256343,-2.287795171387245,4.83273212346441,-3.5419535699111293c2.175599336609963,-1.0385649641808072,4.228135870797871,-1.5524182134950024,5.892876347842616,-1.6529073832949166c2.0240628676171184,-0.07653434376169352,3.4685287952467547,0.1901935503041159,4.767011546125303,0.6228273607932806c1.4901213591837177,0.45658863652738546,2.538886463524875,1.096155166745973,3.593233084973008,1.9403385457768532c1.2220304037151664,0.8920930311070949,1.9615672721371595,1.9022389108493485,2.467335881876494,2.826675945928457c0.7932265221971305,1.5472625120712564,0.7473812454537666,2.7230151375057403,0.7665622081820229,4.120218638752874c-0.1485028195388054,1.9242096740867396,-2.9376638929625187,0.5646287566402182,-3.114134149519259,-0.6707321834884968c-0.6555667773199332,-1.1874512880523298,-1.828457360586782,-2.470074076039623,-3.0422624273332985,-3.353649477632189c-1.453353327127985,-0.931485053668837,-2.7277163338014248,-1.459519283048678,-5.533553135247786,-1.5810458507602907c-1.7039148036910206,-0.049662089596949996,-4.608847401554726,0.2525432445126512,-6.395939476963662,1.3175379349594891c-1.739182423332636,0.8733560821415267,-3.945133200511151,2.5591663406344196,-5.214509298420381,3.73593006870982c-1.18679676306769,1.2129348054074285,-3.0235642489165,3.723745016207374,-3.8404140363542467,5.630402288335006c-0.5533467010180289,-0.8721025482988126,0.18938801077862882,-2.988533325116066,0.7665445347024902,-3.401592353110061Z" stroke="black" id="e4828_area3" style="stroke-width: 1px;" fill="black" transform="matrix(1.53263 0 0 1.47801 -82.6974 -296.305)"/><path d="M542.787385482158,386.5531196004913a40.823805,40.823805,0,0,1,37.0820707070705,-26.637766554433256" stroke="black" id="e4828_circleArc" style="fill: none; stroke-width: 1px;" transform="matrix(0.644054 0 0 0.621101 45.8776 132.398)"/><path d="M542.2124696572421,394.50612184516024a43.965426,43.965426,0,0,1,29.79980359147021,-23.09245230078568" stroke="black" id="e4829_circleArc" style="fill: none; stroke-width: 1px;" transform="matrix(0.644054 0 0 0.621101 45.8776 132.398)"/><path d="M579.7543841293834,359.92527184121434a27.07947,27.07947,0,0,1,25.487934904601616,15.66645622895652" stroke="black" id="e4830_circleArc" style="fill: none; stroke-width: 1px;" transform="matrix(0.644054 0 0 0.621101 45.8776 132.398)"/><path d="M571.6729522021465,371.4958271118022a24.08124,24.08124,0,0,1,25.727483164983084,10.588033108866512" stroke="black" id="e4831_circleArc" style="fill: none; stroke-width: 1px;" transform="matrix(0.644054 0 0 0.621101 45.8776 132.398)"/></g><path d="M557.7972009318446,443.35704319672413a16.450886,16.450886,0,1,0,11.689955106621596,28.266694725028117" stroke="black" id="e3869_circleArc" style="fill: none; stroke-width: 4px;" transform="matrix(2.36211 0 0 2.27793 -221.521 -854.151)"/><path d="M557.2994145900159,443.35699640995466a14.943457,14.943457,0,0,1,14.493854852499226,10.830620130826503" stroke="black" id="e3984_circleArc" style="fill: none; stroke-width: 4px;" transform="matrix(2.36211 0 0 2.27793 -221.521 -854.151)"/><line id="e4035_line" x1="542.679" y1="464.566" x2="542.584" y2="464.47" stroke="black" style="stroke-width: 1px; fill: none;" transform="matrix(2.36211 0 0 2.27793 -221.521 -854.151)"/><line id="e4064_line" x1="542.871" y1="464.279" x2="573.154" y2="452.299" stroke="black" style="stroke-width: 3px; fill: none;" transform="matrix(2.36211 0 0 2.27793 -221.521 -854.151)"/><path d="M598.8078631091735,443.35704319672413a16.450886,16.450886,0,1,0,11.689955106621596,28.266694725028117" stroke="black" id="e4089_circleArc" style="fill: none; stroke-width: 4px;" transform="matrix(2.36211 0 0 2.27793 -221.521 -854.151)"/><path d="M598.247557199763,443.35699640995466a14.733346,14.733346,0,0,1,14.27503636596316,10.21473543119788" stroke="black" id="e4090_circleArc" style="fill: none; stroke-width: 4px;" transform="matrix(2.36211 0 0 2.27793 -221.521 -854.151)"/><line id="e4090_line" x1="583.69" y1="464.566" x2="583.594" y2="464.47" stroke="black" style="stroke-width: 1px; fill: none;" transform="matrix(2.36211 0 0 2.27793 -221.521 -854.151)"/><line id="e4091_line" x1="583.882" y1="464.279" x2="614.165" y2="452.299" stroke="black" style="stroke-width: 3px; fill: none;" transform="matrix(2.36211 0 0 2.27793 -221.521 -854.151)"/><path d="M367.5000628847066,443.16540458841877a16.450886,16.450886,0,1,0,11.689955106621596,28.266694725028117" stroke="black" id="e4099_circleArc" style="fill: none; stroke-width: 4px;" transform="matrix(2.36211 0 0 2.27793 -221.521 -854.151)"/><path d="M367.3148743807867,443.1653578016493a15.126654,15.126654,0,0,1,14.243776582172188,10.863035115017453" stroke="black" id="e4100_circleArc" style="fill: none; stroke-width: 4px;" transform="matrix(2.36211 0 0 2.27793 -221.521 -854.151)"/><line id="e4100_line" x1="352.383" y1="464.374" x2="352.287" y2="464.279" stroke="black" style="stroke-width: 1px; fill: none;" transform="matrix(2.36211 0 0 2.27793 -221.521 -854.151)"/><line id="e4101_line" x1="352.574" y1="464.087" x2="382.857" y2="452.107" stroke="black" style="stroke-width: 3px; fill: none;" transform="matrix(2.36211 0 0 2.27793 -221.521 -854.151)"/><g id="g_e4161_svg" transform="matrix(0.579754 0 0 0.579754 309.619 39.8576)"/><g id="e4938_group" transform="matrix(1.54122 0 0 1.54122 -94.0662 -397.482)"><polygon stroke="black" stroke-width="0.04790965207631874" id="e4917_area3" style="fill: none;" points="501.804 452.293" transform="matrix(1.53263 0 0 1.47801 -82.6974 -296.305)"/><line id="e4917_line" x1="500.50698855050143" y1="407.1659851396522" x2="500.3630066169077" y2="478.1489868486366" stroke="black" style="stroke-width: 4px; fill: none;" transform="matrix(1.53263 0 0 1.47801 -82.6974 -296.305)"/><line id="e4918_line" x1="526.8762207282358" y1="450.7469177568397" x2="526.7601928962046" y2="477.76089480762096" stroke="black" style="stroke-width: 4px; fill: none;" transform="matrix(1.53263 0 0 1.47801 -82.6974 -296.305)"/><polygon stroke="black" stroke-width="0.04790965207631874" id="e4918_area3" style="fill: none;" points="501.804 452.299" transform="matrix(1.53263 0 0 1.47801 -82.6974 -296.305)"/><path d="M502.01298416941563,452.8845059921356c1.1999820009160374,-1.9701227204743645,2.3216642600045816,-4.062891941253554,4.054516796672289,-5.992049965058698c1.0852531714332656,-1.2728912378794917,2.5134038306256343,-2.287795171387245,4.83273212346441,-3.5419535699111293c2.175599336609963,-1.0385649641808072,4.228135870797871,-1.5524182134950024,5.892876347842616,-1.6529073832949166c2.0240628676171184,-0.07653434376169355,3.4685287952467547,0.1901935503041159,4.767011546125303,0.6228273607932806c1.4901213591837177,0.45658863652738546,2.538886463524875,1.096155166745973,3.593233084973008,1.9403385457768532c1.2220304037151664,0.892093031107095,1.9615672721371595,1.9022389108493485,2.467335881876494,2.826675945928457c0.7932265221971305,1.5472625120712564,0.7473812454537666,2.7230151375057403,0.7665622081820228,4.120218638752874c-0.1485028195388054,1.9242096740867396,-2.9376638929625187,0.5646287566402184,-3.114134149519259,-0.670732183488497c-0.6555667773199332,-1.1874512880523298,-1.828457360586782,-2.470074076039623,-3.0422624273332985,-3.353649477632189c-1.453353327127985,-0.9314850536688372,-2.7277163338014248,-1.459519283048678,-5.533553135247786,-1.5810458507602907c-1.7039148036910206,-0.04966208959695002,-4.608847401554726,0.2525432445126512,-6.395939476963662,1.3175379349594891c-1.739182423332636,0.8733560821415267,-3.945133200511151,2.5591663406344196,-5.214509298420381,3.73593006870982c-1.18679676306769,1.2129348054074285,-3.0235642489165,3.723745016207374,-3.8404140363542467,5.630402288335006c-0.5533467010180289,-0.8721025482988126,0.18938801077862885,-2.988533325116066,0.7665445347024903,-3.401592353110061Z" stroke="black" id="e4919_area3" style="stroke-width: 1px;" fill="black" transform="matrix(1.53263 0 0 1.47801 -82.6974 -296.305)"/><path d="M995.0641506726894,386.5531196004912a40.823805,40.823805,0,0,1,37.0820707070705,-26.637766554433256" stroke="black" id="e4919_circleArc" style="fill: none; stroke-width: 1px;" transform="matrix(0.644054 0 0 0.621101 45.8776 132.398)"/><path d="M994.4892348477734,394.5061218451601a43.965426,43.965426,0,0,1,29.79980359147021,-23.09245230078568" stroke="black" id="e4920_circleArc" style="fill: none; stroke-width: 1px;" transform="matrix(0.644054 0 0 0.621101 45.8776 132.398)"/><path d="M1032.0311493199142,359.9252718412142a27.07947,27.07947,0,0,1,25.487934904601616,15.66645622895652" stroke="black" id="e4921_circleArc" style="fill: none; stroke-width: 1px;" transform="matrix(0.644054 0 0 0.621101 45.8776 132.398)"/><path d="M1023.9497173926776,371.4958271118021a24.08124,24.08124,0,0,1,25.727483164983084,10.588033108866512" stroke="black" id="e4922_circleArc" style="fill: none; stroke-width: 1px;" transform="matrix(0.644054 0 0 0.621101 45.8776 132.398)"/></g><g id="g_e5484_svg" transform="matrix(0.552173 -0.553913 0.553913 0.552173 344.777 732.399)"><svg xmlns="http://www.w3.org/2000/svg" xmlns:xlink="http://www.w3.org/1999/xlink" height="164.043" width="164.043" viewBox="0 0 512 512" preserveAspectRatio="xMidYMid meet" zoomAndPan="disable" id="e5484_svg" x="1273.068359375" y="215.6042938232422" stroke="black" fill="khaki" style="stroke-width: 1px;">
<polygon style="fill:#FFE1D6;" points="57.229,403.185 30.938,456.844 54.005,479.91 107.663,453.62 "/>
<polygon style="fill:#EBEDEC;" points="449.449,110.045 410.055,149.438 361.41,100.863 400.803,61.47 "/>
<path style="fill:#FFB14D;" d="M407.578,149.66L109.09,450.143l-48.384-47.549c0-0.012,298.488-300.483,298.488-300.483  L407.578,149.66z"/>
<path style="" d="M491.411,21.226c15.968000000000018,15.715000000000003,11.343999999999994,44.703,-4.6229999999999905,60.42l-28.886000000000024,28.429999999999993l-57.92199999999997,-57.007999999999996l28.87299999999999,-28.43c15.966000000000008,-15.728999999999997,46.575999999999965,-19.141,62.55799999999999,-3.411999999999999Z" fill="#D2101B"/>
<path style="fill: rgb(0, 0, 0);" d="M498.024,13.979c-9.01400000000001,-9.014,-21.01400000000001,-13.979,-33.78899999999999,-13.979c-12.774000000000001,0,-24.774,4.965,-33.78800000000001,13.979l-30.52600000000001,30.527c-4.524999999999977,-4.525999999999996,-11.86099999999999,-4.525999999999996,-16.39100000000002,0c-4.5260000000000105,4.525999999999996,-4.5260000000000105,11.864000000000004,0,16.39l-24.58499999999998,24.584999999999994c-4.524999999999977,-4.525999999999996,-11.86099999999999,-4.525999999999996,-16.39100000000002,0c-4.5260000000000105,4.525999999999996,-4.5260000000000105,11.864000000000004,0,16.39l-289.986,289.98600000000005c-0.006999999999997897,0.007000000000005002,-0.012999999999998124,0.012999999999976808,-0.020000000000003126,0.01999999999998181c-0.0009999999999976694,0.0009999999999763531,-0.0020000000000024443,0.0009999999999763531,-0.0020000000000024443,0.0020000000000095497c-0.9870000000000019,0.9920000000000186,-1.756999999999998,2.1170000000000186,-2.311,3.3179999999999836l-26.442,53.971000000000004c-0.08200000000000074,0.160000000000025,-0.16199999999999903,0.3210000000000264,-0.23799999999999955,0.48399999999998045l-22.37,45.658000000000015c-2.18,4.449000000000012,-1.29,9.790999999999997,2.2120000000000006,13.293999999999983c2.226000000000008,2.2250000000000227,5.192000000000008,3.396000000000015,8.199000000000009,3.396000000000015c1.7289999999999992,0,3.4719999999999995,-0.38700000000000045,5.094999999999999,-1.1829999999999927l45.652,-22.36700000000002c0.16799999999999926,-0.07699999999999818,0.3329999999999984,-0.15899999999999181,0.49799999999999756,-0.242999999999995l53.96500000000001,-26.439999999999998c1.2000000000000028,-0.5539999999999736,2.323999999999998,-1.3240000000000123,3.3149999999999977,-2.309000000000026c0.0010000000000047748,-0.0009999999999763531,0.001999999999995339,-0.0009999999999763531,0.001999999999995339,-0.0020000000000095497c0.007000000000005002,-0.007000000000005002,0.013999999999995794,-0.012999999999976808,0.021000000000000796,-0.01999999999998181l289.986,-289.986c4.526999999999987,4.526999999999987,11.863,4.526999999999987,16.39100000000002,0c4.5260000000000105,-4.5260000000000105,4.5260000000000105,-11.864000000000004,0,-16.39099999999999l24.58499999999998,-24.585000000000008c4.526999999999987,4.526999999999987,11.863,4.526999999999987,16.39100000000002,0c4.5260000000000105,-4.525999999999996,4.5260000000000105,-11.864000000000004,0,-16.39l30.526999999999987,-30.527c18.629999999999995,-18.63199999999999,18.629999999999995,-48.94599999999999,0,-67.57799999999999ZM59.832,463.87l-11.699999999999996,-11.697999999999979l15.902000000000001,-32.454999999999984l28.253,28.252999999999986l-32.455000000000005,15.899999999999977ZM111.95,434.85l-34.79600000000001,-34.798l281.792,-281.791l34.79599999999999,34.798l-281.792,281.791ZM410.131,136.668l-34.79599999999999,-34.798l24.58499999999998,-24.585000000000008l34.798,34.798l-24.58699999999999,24.585000000000008ZM481.634,65.167l-30.526999999999987,30.527l-34.79599999999999,-34.798l30.526999999999987,-30.527c4.636000000000024,-4.635999999999999,10.814999999999998,-7.190000000000001,17.398000000000025,-7.190000000000001c6.584000000000003,0,12.76400000000001,2.553000000000001,17.399,7.190000000000001c9.592999999999961,9.594000000000001,9.592999999999961,25.204,-0.0010000000000331966,34.798Z"/>
<g>
</g>
<g>
</g>
<g>
</g>
<g>
</g>
<g>
</g>
<g>
</g>
<g>
</g>
<g>
</g>
<g>
</g>
<g>
</g>
<g>
</g>
<g>
</g>
<g>
</g>
<g>
</g>
<g>
</g>
</svg></g><g id="g_e5690_svg" transform="matrix(-0.87062 0 0 0.919907 1704.99 31.9965)"><svg xmlns="http://www.w3.org/2000/svg" xmlns:xlink="http://www.w3.org/1999/xlink" height="185.506" width="185.506" viewBox="0 0 324.374 324.374" preserveAspectRatio="xMidYMid meet" zoomAndPan="disable" id="e5690_svg" x="840.711" y="262.174" stroke="black" fill="black" style="stroke-width: 1px;">
<g>
	
</g>
<g>
</g>
<g>
</g>
<g>
</g>
<g>
</g>
<g>
</g>
<g>
</g>
<g>
</g>
<g>
</g>
<g>
</g>
<g>
</g>
<g>
</g>
<g>
</g>
<g>
</g>
<g>
</g>
<g>
</g>
</svg></g><g id="g_e5914_svg" transform="matrix(1 0 0 1 -32.1156 -202.539)"><svg xmlns="http://www.w3.org/2000/svg" xmlns:xlink="http://www.w3.org/1999/xlink" height="174.774" width="174.774" viewBox="0 0 436.842 436.842" preserveAspectRatio="xMidYMid meet" zoomAndPan="disable" id="e5914_svg" x="800.8503418355807" y="300.5017089633416" stroke="black" fill="black" style="stroke-width: 1px;">
<path d="M343.746,154.841c-12.696000000000026,0,-24.803999999999974,2.5579999999999927,-35.841999999999985,7.180000000000007l-26.394000000000005,-51.211h36.889999999999986c4.0020000000000095,0,7.257999999999981,3.2560000000000002,7.257999999999981,7.257999999999996s-3.2560000000000286,7.257999999999996,-7.257999999999981,7.257999999999996h-7.870999999999981c-4.142999999999972,0,-7.5,3.35799999999999,-7.5,7.500000000000014s3.3570000000000277,7.5,7.5,7.5h7.870999999999981c12.273000000000025,0,22.25799999999998,-9.985000000000014,22.25799999999998,-22.257999999999996s-9.98399999999998,-22.257999999999996,-22.25799999999998,-22.257999999999996h-49.19200000000001c-2.615000000000009,0,-5.041999999999973,1.3629999999999995,-6.403999999999996,3.5960000000000036c-1.36099999999999,2.233000000000004,-1.4610000000000127,5.015000000000001,-0.2629999999999768,7.340000000000003l13.125,25.466999999999985h-108.243l-10.919999999999987,-21.40299999999999h17.269000000000005c4.143000000000001,0,7.5,-3.358000000000004,7.5,-7.5s-3.3569999999999993,-7.5,-7.5,-7.5h-49.193c-4.143000000000001,0,-7.5,3.358000000000004,-7.5,7.5s3.3569999999999993,7.5,7.5,7.5h15.083999999999989l14.575999999999993,28.568000000000012l-17.132000000000005,26.543000000000006c-13.113,-7.064999999999998,-28.101,-11.080000000000013,-44.010999999999996,-11.080000000000013c-51.333000000000006,-2.842170943040401e-14,-93.096,41.76199999999997,-93.096,93.09499999999997c0,51.333,41.763,93.09600000000003,93.096,93.09600000000003c48.80799999999999,0,88.96100000000001,-37.757000000000005,92.793,-85.596h22.007000000000005l-8.549000000000007,27.817999999999984h-4.921999999999997c-4.143000000000001,0,-7.5,3.358000000000004,-7.5,7.5s3.3569999999999993,7.5,7.5,7.5h27c4.143000000000001,0,7.5,-3.358000000000004,7.5,-7.5s-3.3569999999999993,-7.5,-7.5,-7.5h-6.385999999999996l9.869,-32.114000000000004l62.406000000000006,-96.327l7.2690000000000055,14.103000000000009c-26.357000000000028,16.458,-43.93299999999999,45.722999999999985,-43.93299999999999,79.02000000000001c0,51.33299999999997,41.76299999999998,93.096,93.09699999999998,93.096c51.33300000000003,0,93.096,-41.76299999999998,93.096,-93.096c-0.0010000000000331966,-51.33300000000003,-41.76400000000001,-93.09500000000003,-93.09700000000004,-93.09500000000003ZM162.121,154.826l43.678,85.60999999999999h-19.911c-2.162000000000006,-26.985000000000014,-15.882000000000005,-50.75800000000001,-36.19300000000001,-66.35899999999998l12.426000000000016,-19.251000000000005ZM170.824,240.436h-63.96000000000001l34.661,-53.698999999999984c16.209000000000003,12.85499999999999,27.22,31.986999999999966,29.299000000000007,53.698999999999984ZM93.096,326.032c-43.063,0,-78.096,-35.03299999999996,-78.096,-78.09599999999998c0,-43.06199999999998,35.033,-78.096,78.096,-78.096c12.914000000000001,0,25.095,3.1699999999999875,35.83699999999999,8.742999999999995l-42.13900000000001,65.285c-1.4890000000000043,2.306999999999988,-1.597999999999999,5.244,-0.284000000000006,7.655000000000001c1.3130000000000024,2.4110000000000014,3.8400000000000034,3.912000000000006,6.5859999999999985,3.912000000000006h77.72799999999998c-3.787999999999954,39.557000000000016,-37.19599999999997,70.59699999999998,-77.72799999999995,70.59699999999998ZM218.819,232.949l-43.742999999999995,-85.737h99.28900000000002l-55.54600000000002,85.737ZM343.746,326.032c-43.06299999999999,0,-78.09699999999998,-35.03399999999999,-78.09699999999998,-78.096c0,-27.49799999999999,14.298000000000002,-51.70400000000001,35.83800000000002,-65.62299999999999l35.591999999999985,69.059c1.3319999999999936,2.5829999999999984,3.9540000000000077,4.064999999999998,6.673000000000002,4.064999999999998c1.1569999999999823,0,2.3310000000000173,-0.26900000000000546,3.430000000000007,-0.835000000000008c3.6829999999999927,-1.8969999999999914,5.129000000000019,-6.4199999999999875,3.2309999999999945,-10.103000000000009l-35.60300000000001,-69.07900000000001c8.956000000000017,-3.5860000000000127,18.714,-5.580999999999989,28.93599999999998,-5.580999999999989c43.06299999999999,0,78.096,35.03399999999999,78.096,78.096c0,43.06400000000005,-35.03299999999996,78.09700000000001,-78.096,78.09700000000001Z" fill="#D2101B" stroke="#D2101B" style="stroke-width: 2px;"/>
<g>
</g>
<g>
</g>
<g>
</g>
<g>
</g>
<g>
</g>
<g>
</g>
<g>
</g>
<g>
</g>
<g>
</g>
<g>
</g>
<g>
</g>
<g>
</g>
<g>
</g>
<g>
</g>
<g>
</g>
</svg></g><line id="e5932_line" x1="809.986" y1="349.326" x2="837.645" y2="399.398" stroke="#000000" style="stroke-width: 10px; fill: none;" transform="matrix(1 0 0 1 -32.1156 -202.539)"/><line id="e5946_line" x1="886.325" y1="399.002" x2="919.645" y2="347.752" stroke="#000000" style="stroke-width: 10px; fill: none;" transform="matrix(1 0 0 1 -32.1156 -202.539)"/><line id="e6014_line" x1="836.879" y1="400.424" x2="866.391" y2="357.115" stroke="#000000" style="stroke-width: 10px; fill: none;" transform="matrix(1 0 0 1 -32.1156 -202.539)"/><line id="e6027_line" x1="888.635" y1="399.274" x2="859.746" y2="347.662" stroke="#000000" style="stroke-width: 10px; fill: none;" transform="matrix(1 0 0 1 -32.1156 -202.539)"/><path d="M833.2885796988991,401.8540567554342c0.36091923361152567,0.5044172392282462,1.9342917056596889,3.329595082950277,2.8146894564127933,3.677061070229229c2.269777660966156,1.4254331589958156,4.067021457666215,-0.7594016189997319,4.910736734751936,-2.2757149470509717c0.44846064745649983,-1.624110045222892,-1.9807268399646318,-5.899362417247744,-3.5333540345950496,-6.072541550487472c-1.5526271946304178,-0.17317913323984158,-4.624855868296322,1.8671148884174045,-4.1920721565696795,4.671195427309215Z" id="e7102_area3" fill="#000000" style="stroke-width: 1px; stroke: none;" transform="matrix(1 0 0 1 -32.1156 -202.539)"/><path d="M883.1505500973277,399.61428052086626c0.25312251643981654,0.731988086590718,1.8264949884879798,3.557165930312749,2.706892739241084,3.9046319175917006c2.269777660966156,1.4254331589958156,4.150863348799589,-0.6995145539042937,4.910736734751936,-2.2757149470509717c0.44846064745649983,-1.624110045222892,-1.9807268399646318,-5.899362417247744,-3.5333540345950496,-6.072541550487472c-1.5526271946304178,-0.17317913323984158,-4.624855868296322,1.8671148884174045,-4.08427543939797,4.443624579946743Z" id="e7378_area3" fill="#000000" style="stroke-width: 1px; stroke: none;" transform="matrix(1 0 0 1 -32.1156 -202.539)"/><g id="g_e1_svg" transform="matrix(1 0 0 1 125.974 276.671)"/><g id="g_e122_svg" transform="matrix(1 0 0 1 125.974 276.671)"/><g id="g_e152_svg" transform="matrix(1 0 0 1 125.974 276.671)"/><g id="g_e169_svg" transform="matrix(0.964743 0 0 1 -8.8705 -202.539)"><svg xmlns="http://www.w3.org/2000/svg" xmlns:xlink="http://www.w3.org/1999/xlink" height="251.43" width="251.43" viewBox="0 0 120 280" preserveAspectRatio="xMidYMid meet" zoomAndPan="disable" id="e169_svg" x="155.29925533313758" y="197.39350889282298" stroke="black" fill="khaki" style="stroke-width: 1px;"><defs id="svgEditorDefs"><path id="svgEditorClosePathDefs" stroke="black" fill="khaki" style="stroke-width: 1px;"/></defs><rect id="svgEditorBackground" x="0" y="0" width="450" height="300" style="fill: none; stroke: none;"/><path d="M25.126031341482022,75.57891429361268c-5.013835267616798,0.19641839036626194,-7.4487512747591325,2.465094579788797,-8.77618856506146,4.191607175989333c-1.3648624405648633,1.576811995150365,-2.165054254365259,3.0121111156417726,-2.8068911141537853,5.464080698946702c-0.3611482328193603,1.722179153185181,-0.3212536456048982,3.4510091100290197,-0.33682466314191195,4.266459221535484c-0.24012191911232617,0.6283243601937731,-0.811122181548825,0.7385227871470761,-1.0104763837571085,0.8233600626601006c-0.554893129702478,0.29067560195704845,-0.5170436577745366,0.8695146705911156,-0.5613797598696095,1.4408638667552518c-0.04433610209517277,0.8146126728707657,0.11053436186576,1.6696448858552344,0.6923686024990028,2.077093982950231c0.7876725670772085,0.3700239468324187,1.1739668552324645,-0.15991344744588812,1.8712581624375986,0.39296326104630486c1.0528302346993428,2.629972548063648,4.104547169712262,4.783562042836081,6.3996959975425085,5.052397400774851c0.0496398120773734,0.8489251870083196,0.08752897373270241,0.0305069470083197,-0.037433652167607114,0.6923656324123052c-0.4805015533945323,0.7367089859290274,-1.9440902759829726,3.0594104350167584,-2.844300949827158,4.565873009093195c-1.3305999018634935,1.9555643772270912,-3.316648546748951,6.1575310508562495,-4.210330814757242,6.8487951831615135c-0.8936822680083056,0.6912641323052644,-1.114864155204856,0.8155116212935813,-1.49700927734375,1.197601318359375c-0.38214512213889407,0.3820896970657945,-0.15387493413209102,3.3864011955080286,1.0478999563988225,2.3952212739498013c0.7900982376429226,-0.7479164448516255,0.6130219400394886,-1.8924869967701738,1.047909980124615,-1.7964053559810509c0.4348880400851273,0.09608164078912312,0.5974172900806849,0.2633963931795055,0.8982009887695312,0.2994079589843752c0.3007836986888323,0.03601156580486989,0.5450323140240695,-0.06532514967085501,0.5613813932905889,-0.31813404788363187c-0.1520640969149839,-0.9451741780698626,-0.088925843712346,-0.3889503691541456,-0.991769748799356,-1.7963969656761662c-0.6408678532491773,-1.2203208452092724,5.097498293307098,-10.210075722034674,5.931884125192113,-10.34804977635119c0.1794457022904511,0.7228044017221293,-0.4014009884216138,13.13916392116181,0.0000051234630689123185,16.017969841652643c0.2142803605719908,1.437937635382923,1.9643557317989746,0.10806354985254538,3.2372786529521136,0.8046356071818088c0.13145583814537093,0.4345960054913578,0.4396283787859834,5.274537831872635,0.5987887788326134,10.086061027455855c-0.45835457928544154,0.5637686407838487,-1.6014579563986047,1.0613816673151177,-1.4782831884445216,1.53445469825823c0.08574961769153339,0.6789113573871084,0.03319531931180112,1.0937128763655437,0.8607682091124502,1.0666065355565024c0.5281716877002793,0.02903138458469816,1.374599352676455,0.3081572044121117,2.713331672739457,-0.7297801831935546c0.4966664391557176,-0.551410434192519,-0.002660407432188097,-1.3813229970725733,-0.9356355134476646,-1.8525482048379445c-0.5774361785212815,-0.1718240056650302,0.8612518488504296,0.3839901131212857,-0.6923702917200671,-0.3368331092469819c-0.2811670316438324,-0.6272603467118074,-0.8471206107790583,-8.883774737639442,-0.09355611877239772,-9.917670683657832c2.8306603315781738,-0.2666803656361483,4.092031455090677,-0.24689169414955361,6.979795089427483,-0.2619625380698951c0.8106677947653504,1.2948094152689578,0.815183031578357,4.618313925456334,1.2163156385117588,6.717790041832188c0.28885715614572405,2.2491767174261668,0.3742894245245623,2.101042530354789,0.467804131355678,2.9004694159995097c0.16836500735618654,0.7058640099883178,-0.8079803536608101,1.7726729397795111,-0.6549316276895366,2.1893710671587314c0.35888705241529806,0.5102610030355663,1.0375186335041633,0.6122383268380531,1.1975963064964787,0.6549468864786272c0.23492797351741518,0.04270855964045958,1.3540554046449529,0.3787004899514844,2.2455223063205096,-0.18714275512297734c0.40493994826243807,-0.30386719323655637,-0.35803959968652066,-1.6960693255771848,-0.8795027999167925,-2.0209646478612058c-0.8208644023306136,-0.7552845503034296,-0.47938962163428345,-0.2168627122928797,-1.6279837894946638,-1.2537322868691945c-0.6620672144472621,-0.7748935227384663,-1.3836498028890674,-9.305316514814535,-0.7672138353611616,-9.094314111039978c0.5790108172653565,-0.4626503009513383,3.190492464718119,0.17385531090292275,3.3869673736552386,-0.3180967734214735c0.8327024634004094,-2.4754850482397046,-3.188649040596971,-14.884042279636532,-4.378745624359681,-17.70211500563525c2.9266699451176805,-1.7701685186474094,3.8096434137190167,-2.182700215505065,4.715571976722572,-3.2185517473423886c0.9807788635286556,-0.7925880551307215,4.3495103459432025,-6.4671437534166785,5.632488046554812,-6.867522905481621c1.2829777006116103,-0.4003791520649431,2.2223289145465515,-0.6998432314526049,2.2455054141105393,-1.3847270696721241c0.004463924432741358,-0.42290778638169996,-0.2664176343941167,-0.9657454839321822,-0.7859264104924084,-0.7484995152087786c-0.4259459004419739,0.1611082433295792,-0.8585017967218675,0.43730682319605363,-1.0104670651415688,0.18712062784965144c-0.15196526841970143,-0.2501861953463733,-0.3878639126403983,-1.127075547088765,-0.7485046386718759,-1.197601318359375c-0.3606407260314768,-0.07052577127063858,-0.818457928473578,0.07056381943536394,-0.8420657693071405,0.7859297889344248c0.1635179104791577,0.6966533943677867,0.31522041610247736,0.8300065524253456,0.09356113063526561,1.7589768272765127c-0.12809640981083717,1.5090601039206888,-1.559808546997374,3.378030510470012,-2.6759047774558278,5.033690765817084c-2.201425588072425,3.3585045922930874,-4.784455059526323,4.443048888565244,-6.380982661500894,5.29564829202414c2.071137123755193,-1.9917120164948017,4.408980482738599,-6.654581059584444,4.809134963979119,-7.335323881595713c-0.38577367427302556,-0.9801440241116665,-0.5665153600540405,-0.21454019177178926,0.1684131761814459,-0.3742548810674866c0.678790810841691,-0.1971398395581903,1.5518222631166907,-0.8902951787018196,1.9835293622727193,-1.2724549973264634c0.43170709915602856,-0.3821598186246437,0.886890608850394,-0.9943345821278055,0.5800847056064242,-1.7776927808498044c-0.9430334577073154,-0.8769210743783172,-1.5819391137173113,1.1327382120086327,-1.702835723440728,-0.09356287565640302c0.1597920172457351,-2.274205295016287,-1.8233428553189128,-7.514294693852605,-4.060631847127922,-9.431133706518864c-1.7694746135271382,-1.5425875100408746,-4.342456640282137,-3.134294560352231,-8.794914653960689,-3.1062893461673866Z" stroke="black" id="e2411_area3" style="stroke-width: 1px;" fill="black" transform="matrix(2.07889 0 0 2.07889 -2.75918 -2.2266)"/><path d="M42.818760623100225,87.33035118151625" stroke="black" id="e2996_curve3" style="fill: none; stroke-width: 1px;" transform="matrix(2.07889 0 0 2.07889 -2.75918 -2.2266)"/><path d="M43.11816084733482,87.33035355842614a248.967697,248.967697,0,0,0,-1.4970060105019343,-43.56287490560658" stroke="black" id="e3012_circleArc" style="fill: none; stroke-width: 1px;" transform="matrix(2.07889 0 0 2.07889 -2.75918 -2.2266)"/><path d="M44.42373084492408,44.10477281761023c0.569032803378775,0.8075492919424221,-6.982964090251386,1.6782788123109924,-5.950590648549678,-0.2619641714907388c0.6581219390762385,-1.3040154293384276,1.8612341319723953,-2.122895889255865,1.9086850019211568,-2.8068910583536777c0.047450869948761465,-0.6839951690978125,0.7139170061722098,-0.84477813986814,-0.074859619140625,-1.1227569580078196c-0.7887766253128348,-0.2779788181396654,-3.4360226975767887,-1.4049987929436654,-5.202086938188415,-2.4700529372438425c-2.739118147437921,-1.327030196137997,-5.029878429614712,-4.678955228724504,-5.6512031834176355,-6.511982344566519c-1.22012715800372,-2.9557998977175544,-0.7093624260853346,-9.046508495026558,0.3368271690733593,-11.377246996189687c0.7467883930583241,-2.068762449325245,2.417005850102271,-4.252479437678144,4.94012113327679,-5.875741276335191c1.9991631794988223,-1.0618845847188538,4.8523589353575005,-1.664227968020839,8.270950781538119,-0.4116850431929322c2.3706876388293097,1.1776926243028356,4.6072474690754746,3.401454229326731,5.4640850056993315,5.239532470703125c1.2685141895118761,2.2497548942644414,1.7857635180143063,5.175862798614844,1.8712590349481388,7.260476847912429c0.01064521640873295,2.3840152513979262,-0.05328457891832272,4.803805055360499,-1.04790921921429,7.335327148437475c-0.6577982879329625,1.4836178857256073,-1.7387453303260543,3.4820157079327316,-3.44311861281696,4.752992003522024c-1.4423972306530572,0.9715750934889229,-3.063703886495432,1.0929242177475373,-3.9670562744140625,1.8899688720703125c-0.2296996831927629,0.647344053272576,-0.8537117845788771,0.9347830551225798,-0.1871337890625,1.0853271484375c0.5543025447287562,0.48737044567786825,2.874075209956942,2.5419973028802474,2.7320301583472713,3.2746962942975415Z" stroke="black" id="e3064_area3" style="stroke-width: 1px;" fill="#D2101B" transform="matrix(2.07889 0 0 2.07889 -2.75918 -2.2266)"/><path d="M41.873631228568975,40.19753868151585c0.7725541720696756,-0.3749672579554048,2.7146011186868293,-0.6189101259205643,3.3682708740234375,-0.6736450195312509c0.6536697553366086,-0.05473489361068581,1.5579033573516767,0.13233178776647503,1.8712615966796884,0.3742523193359377c0.3133582393280112,0.2419205315694628,0.858541176590564,0.8146369035711706,0.598800659179688,1.1227569580078125c-0.2597405174108758,0.3081200544366427,-1.6601092413861238,0.6451930533098117,-2.245513916015625,0.6736450195312509c-0.5854046746295019,0.028451966221439334,-3.001726833407673,-0.8120051216049835,-3.443115234375,-1.197601318359375" stroke="black" id="e3524_curve3" style="fill: none; stroke-width: 1px;" transform="matrix(2.07889 0 0 2.07889 -2.75918 -2.2266)"/><path d="M255.7053595325988,40.57179018414135c0.7725541720696756,-0.37496725795540486,2.7146011186868293,-0.6189101259205643,3.3682708740234375,-0.6736450195312511c0.6536697553366086,-0.05473489361068582,1.5579033573516767,0.13233178776647506,1.8712615966796886,0.3742523193359378c0.3133582393280113,0.24192053156946286,0.8585411765905642,0.8146369035711707,0.5988006591796882,1.1227569580078125c-0.2597405174108758,0.30812005443664275,-1.6601092413861238,0.6451930533098119,-2.245513916015625,0.6736450195312511c-0.5854046746295021,0.02845196622143934,-3.001726833407673,-0.8120051216049836,-3.443115234375,-1.197601318359375" stroke="black" id="e3596_curve3" style="fill: none; stroke-width: 1px;" transform="matrix(-2.09351 0 0 2.07889 616.842 -2.53781)"/><path d="M16.488382110981505,74.65651151096964" stroke="black" id="e4855_curve3" style="fill: none; stroke-width: 1px;" transform="matrix(2.07889 0 0 2.07889 -2.75918 -2.2266)"/><path d="M22.9255105657726,75.40501582205619a6.53632254522538,6.53632254522538,0,0,1,0.2994012021003982,-5.538922238857197" stroke="black" id="e4931_circleArc" style="fill: none; stroke-width: 1px;" transform="matrix(2.07889 0 0 2.07889 -2.75918 -2.2266)"/><path d="M24.42251657627452,76.90202183255809a6.53632254522538,6.53632254522538,0,0,1,0.2994012021003982,-5.538922238857197" stroke="black" id="e4946_circleArc" style="fill: none; stroke-width: 1px;" transform="matrix(2.07889 0 0 2.07889 -2.75918 -2.2266)"/></svg></g><polygon id="e106_polygon" style="stroke-width: 1px; stroke: none;" points="864.16 345.208 852.309 345.197 855.801 350.893 857.852 349.737" fill="#000000" transform="matrix(1 0 0 1 -32.1156 -202.539)"/><polygon id="e556_polygon" style="stroke-width: 1px; stroke: none;" points="915.452 345.03 927.237 345.03 923.723 350.606 915.886 346.056" fill="#000000" transform="matrix(1 0 0 1 -32.1156 -202.539)"/><polygon id="e1306_polygon" style="stroke-width: 1px; stroke: none;" points="817.701 345.499 829.532 345.51 825.701 352.352 816.369 348.064" fill="#000000" transform="matrix(-0.963353 0 0 1 1569.35 -202.365)"/></svg>